# xmcd
#
# Track frame offsets:
#	150
#	18373
#	37341
#	52429
#	70921
#	87404
#	107388
#	127863
#	138909
#	150589
#
# Disc length: 2251 seconds
# Revision: 0
# Processed by: cddbd v1.5.2PL0 Copyright (c) Steve Scherf et al.
# Submitted via: dBpowerAMP V12.0
#
DISCID=8508c90a
DTITLE=Spur - Plus One
DYEAR=1900
DGENRE=
TTITLE0=Long Black Train
TTITLE1=Dream Walkin'
TTITLE2=The Good Stuff
TTITLE3=Luckenbach Texas
TTITLE4=No Shoes, No Shirt, No Problems
TTITLE5=Whiskey Lullaby
TTITLE6=Pass The Point Of Rescue
TTITLE7=Me Neither
TTITLE8=Over Night Mail
TTITLE9=It's Five O'Clock Somewhere
EXTD=
EXTT0=
EXTT1=
EXTT2=
EXTT3=
EXTT4=
EXTT5=
EXTT6=
EXTT7=
EXTT8=
EXTT9=
PLAYORDER=
